Coordinates
nRows=8
nColumns=38

# SIMM Motion File Header:
name Coordinates
datacolumns 38
datarows 8
otherdata 1
range 1.80030000000000000000 1.80730000000000010000

Units are S.I. units (second, meters, Newtons, ...)
Angles are in degrees.

endheader
time	pelvis_tilt	pelvis_list	pelvis_rotation	pelvis_tx	pelvis_ty	pelvis_tz	hip_flexion_r	hip_adduction_r	hip_rotation_r	knee_angle_r	ankle_angle_r	subtalar_angle_r	mtp_angle_r	hip_flexion_l	hip_adduction_l	hip_rotation_l	knee_angle_l	ankle_angle_l	subtalar_angle_l	mtp_angle_l	lumbar_extension	lumbar_bending	lumbar_rotation	arm_flex_r	arm_add_r	arm_rot_r	elbow_flex_r	pro_sup_r	wrist_flex_r	wrist_dev_r	arm_flex_l	arm_add_l	arm_rot_l	elbow_flex_l	pro_sup_l	wrist_flex_l	wrist_dev_l
      1.80030000000000000000	     -5.59298468168717290000	      4.11659398461027950000	      0.80501467694402284000	      1.17812085419640030000	      1.01048793660286470000	     -0.32040328806224350000	    -11.94625356819390100000	      3.23559889425058510000	      3.49810638108792690000	    -78.42764943848222000000	    -18.37459748615146500000	     -0.00000000000019472026	      0.00000000000030603111	     38.36276239903818200000	      6.12930790650956240000	     -0.68314796841257852000	    -16.24982357957300700000	    -26.30894370709748000000	     -0.00000000000000088116	     -0.00000000000002889368	     -6.64517194345826120000	     -5.74572885290954720000	     14.97270145362612400000	    -26.27210525236737800000	    -12.88216911089917500000	    -10.20235826955284300000	     97.50776112284528100000	     82.61974134396241700000	      0.00000000000003323861	     -0.00000000000002796698	    -57.45353823014124100000	    -19.49303628501452900000	    -14.18528126019390500000	    107.50288464015831000000	     88.01396512762804000000	     -0.00000000000001725784	     -0.00000000000001733475
      1.80130000000000010000	     -5.54962149327388230000	      4.14237922830301650000	      0.86916035623328713000	      1.17817291142901270000	      1.01022446924186490000	     -0.32036468622222142000	    -11.74963236818898200000	      3.16806182608246710000	      3.27405360844554050000	    -79.17957926346696200000	    -18.20417828015253300000	     -0.00000000000019560700	      0.00000000000030761072	     38.15583973373740900000	      6.18266096082877410000	     -0.72881265695787512000	    -16.06515641554730700000	    -26.51209770019360000000	     -0.00000000000000090134	     -0.00000000000002904700	     -6.72056468153821030000	     -5.80976329947263360000	     14.85644729308696600000	    -26.36699552883860800000	    -12.85436538972665100000	    -10.15759203252375900000	     97.12715794667536800000	     82.32339237861151600000	      0.00000000000003337187	     -0.00000000000002811454	    -57.23131680235799500000	    -19.55252346114370700000	    -14.09721903408469100000	    107.46529291980021000000	     87.99861017094266900000	     -0.00000000000001736485	     -0.00000000000001741915
      1.80230000000000000000	     -5.51094682269829410000	      4.16710422428251540000	      0.93294544604394858000	      1.17822199905165110000	      1.00994389488829550000	     -0.32032429597421963000	    -11.54587512300114900000	      3.10100696699542460000	      3.05376470892310790000	    -79.93217834926872500000	    -18.03379410351435700000	     -0.00000000000019649423	      0.00000000000030919085	     37.96002814361548200000	      6.23381950311090540000	     -0.77607721294198007000	    -15.90401618387820900000	    -26.70169643840321100000	     -0.00000000000000092053	     -0.00000000000002920028	     -6.79034715588233160000	     -5.87278590795624830000	     14.73867536367856300000	    -26.46026895127365800000	    -12.82624203311914000000	    -10.11174161829307700000	     96.74189575890463300000	     82.02711681039168900000	      0.00000000000003350544	     -0.00000000000002826367	    -57.00758766692615600000	    -19.61260120078516800000	    -14.00780564032647600000	    107.42656081614496000000	     87.97957030075045300000	     -0.00000000000001747167	     -0.00000000000001750056
      1.80330000000000010000	     -5.47672727741855510000	      4.19082897261227320000	      0.99630463873530017000	      1.17826823431312100000	      1.00964657771351710000	     -0.32028208706249522000	    -11.33525668728534100000	      3.03440197479466980000	      2.83728855502596340000	    -80.68531741307218400000	    -17.86351591226095400000	     -0.00000000000019738340	      0.00000000000031077157	     37.77499108875024800000	      6.28286386291157050000	     -0.82450899258436927000	    -15.76620003486413600000	    -26.87720669577744600000	     -0.00000000000000093843	     -0.00000000000002935256	     -6.85476280849584720000	     -5.93487677291608670000	     14.61943125403912600000	    -26.55182599902219900000	    -12.79783972991539500000	    -10.06481958443910500000	     96.35197092833314500000	     81.73128164377003200000	      0.00000000000003363759	     -0.00000000000002841367	    -56.78238118491954400000	    -19.67324010289321000000	    -13.91701065082827200000	    107.38672534872295000000	     87.95691251720833700000	     -0.00000000000001757850	     -0.00000000000001758215
      1.80430000000000000000	     -5.44672645776863540000	      4.21361600078748120000	      1.05917793465000850000	      1.17831174688231120000	      1.00933288747424180000	     -0.32023804469484757000	    -11.11805445939466700000	      2.96821134938954370000	      2.62466041162669360000	    -81.43886323544815300000	    -17.69341059464589300000	     -0.00000000000019827257	      0.00000000000031235334	     37.60037104993738700000	      6.32988460687726740000	     -0.87365789755541801000	    -15.65146558218074600000	    -27.03813126701967200000	     -0.00000000000000095689	     -0.00000000000002950151	     -6.91405912552117120000	     -5.99611670157034200000	     14.49875875840801100000	    -26.64157536264684000000	    -12.76920014922262000000	    -10.01683652353429300000	     95.95738505410612600000	     81.43624611589309800000	      0.00000000000003377045	     -0.00000000000002856475	    -56.55572685687537400000	    -19.73441060710319700000	    -13.82480253293106300000	    107.34582308582189000000	     87.93073081111097600000	     -0.00000000000001768566	     -0.00000000000001766415
      1.80530000000000010000	     -5.42071139303756850000	      4.23552853844244130000	      1.12151042730406390000	      1.17835267541109800000	      1.00900318989756350000	     -0.32019216858630978000	    -10.89454083122917200000	      2.90239823237404070000	      2.41590348411836820000	    -82.19268057838584700000	    -17.52354106011265600000	     -0.00000000000019916154	      0.00000000000031393359	     37.43579831190523100000	      6.37498041795025210000	     -0.92306002139226839000	    -15.55953531704592900000	    -27.18400801974231500000	     -0.00000000000000097422	     -0.00000000000002964976	     -6.96848053164258020000	     -6.05658537789013170000	     14.37670055740416200000	    -26.72943474068221900000	    -12.74036593635295000000	     -9.96780085364699890000	     95.55814479356577400000	     81.14236148859843900000	      0.00000000000003390366	     -0.00000000000002871874	    -56.32765397277055500000	    -19.79608278724025900000	    -13.73114900634338500000	    107.30388988750070000000	     87.90114575341385700000	     -0.00000000000001779342	     -0.00000000000001774526
      1.80630000000000000000	     -5.39845460436396700000	      4.25662947204489490000	      1.18325198643764810000	      1.17839116564892920000	      1.00865784333406290000	     -0.32014447199129714000	    -10.66498069558242700000	      2.83692539241448040000	      2.21103009446551810000	    -82.94663299522393600000	    -17.35396647560770900000	     -0.00000000000020005385	      0.00000000000031551476	     37.28089455389085300000	      6.41825677471000850000	     -0.97224140865611852000	    -15.49009985451165900000	    -27.31440896431758200000	     -0.00000000000000099075	     -0.00000000000002979754	     -7.01826617256378160000	     -6.11636032104872830000	     14.25329858271120600000	    -26.81533107398562500000	    -12.71138085547762300000	     -9.91771862987894970000	     95.15426194826676500000	     80.84997064430798700000	      0.00000000000003403707	     -0.00000000000002887133	    -56.09819170233193800000	    -19.85822622217947900000	    -13.63601734351480700000	    107.26096094222426000000	     87.86830395518404700000	     -0.00000000000001790112	     -0.00000000000001782561
      1.80730000000000010000	     -5.37973296320100220000	      4.27698083906033940000	      1.24435691223770140000	      1.17842736972867420000	      1.00829720000495390000	     -0.32009498080426979000	    -10.42963261496120500000	      2.77175568214323100000	      2.01004254449175690000	    -83.70058288871649700000	    -17.18474248607906300000	     -0.00000000000020094759	      0.00000000000031709624	     37.13527264393569300000	      6.45982520455545650000	     -1.02072180016829870000	    -15.44282033421598000000	    -27.42893923449451800000	     -0.00000000000000100672	     -0.00000000000002994440	     -7.06365128079111400000	     -6.17551635310066690000	     14.12859409587223400000	    -26.89920038912119100000	    -12.68229003730583700000	     -9.86659337067187360000	     94.74575376376076000000	     80.55940753679087200000	      0.00000000000003417005	     -0.00000000000002902469	    -55.86736877804737100000	    -19.92080992127158000000	    -13.53937462843096300000	    107.21707101923383000000	     87.83237743024257300000	     -0.00000000000001800822	     -0.00000000000001790522
